<svg xmlns="http://www.w3.org/2000/svg" width="270" height="52.93" viewBox="0 0 270 52.93">
  <path id="Path_1932" data-name="Path 1932" d="M1010.848,96.211a3.3,3.3,0,0,0-.066-4.86,7.692,7.692,0,0,0-3.6-.554h-4.5V96.81h4.791a6.637,6.637,0,0,0,3.376-.6m12.848,19.011v1.485h-11.439l-.037-.154q-.269-1.108-.416-1.911l-.054-.3v0a8.915,8.915,0,0,1-.153-1.388h0v-3.434h0c0-1.728-.3-2.883-1.006-3.6a4.658,4.658,0,0,0-3.453-1h-4.457v11.791H991.436V82.12h16.558c4.935,0,8.537.64,10.915,2.208h0c2.4,1.585,3.549,4.1,3.549,7.835a9.448,9.448,0,0,1-1.383,5.3,8.9,8.9,0,0,1-3.717,3.1,6.3,6.3,0,0,1,3.682,2.3,9.552,9.552,0,0,1,1.466,5.359l.19,4.754h0l0,.1c.041,1.285.059,1.869.814,1.944l.182.018ZM968.8,104.608h6.356L972,93.692Zm8.955-22.353,12.029,34.185.094.267H978.554l-.041-.147-1.242-4.369H966.685l-1.288,4.372-.044.145H954.118l.1-.269L966.25,82.254l.047-.134h11.41Zm-24.808.066v34.386H942.607v-.2l.1-16.829h0c0-.4,0-1.063.007-2.158q0-.81.013-1.858c-.383,1.689-.706,2.979-.926,3.856l-.075.306-4.232,16.734-.038.153h-7.967l-.039-.151-4.28-16.355h0c-.238-.93-.466-1.932-.691-3.009l-.219-1.06c.046,1.7.071,2.987.071,3.877v16.7H913.986V82.12H927.7l.041.147,4.755,17.07,0,.009c.058.261.271,1.2.633,2.777l.226.986.069.3c.262-1.318.492-2.364.678-3.125.049-.2.091-.366.125-.5s.075-.275.109-.4l0-.012,4.85-17.116.041-.146h13.715Zm-42.076,25.1v9.282H884.555V82.12h11.388v25.1h14.929Zm-48.953-2.817h6.358L865.12,93.692Zm8.956-22.353L882.9,116.44l.095.267H871.674l-.042-.147-1.242-4.369H859.8l-1.288,4.372-.044.145H847.238l.095-.269L859.416,82.12h11.412ZM768.228,78.683l-.346-.192V95.131l.353-.213,4.591-2.759.115-.067v-10.8l-.121-.067Zm7.993,15.5-8.2,4.586-.12.067v16.227l-3.794,2.218-.324.19.315.207,3.91,2.565.242.007,4.535-2.564.117-.067v-.136l.005-16.055,3.584-2.185,3.673,2.165.117.07.117-.068,3.553-2.034v15.691l-3.787,2.235-.323.191.313.205,3.9,2.556.244.007,4.612-2.661.117-.068V117.4l.009-19.639v-.132l-.116-.068-12.7-7.487ZM753.7,72.948h45.638v52.93H753.7Zm92.134,9.373v34.386H834.444V103.443h-9.818v13.264H813.239V82.12h11.387v11.6h9.818V82.12H845.83Z" transform="translate(-753.696 -72.948)" fill="#e30614"/>
</svg>
