<?xml version="1.0" standalone="no"?>
<!DOCTYPE svg PUBLIC "-//W3C//DTD SVG 1.1//EN" "http://www.w3.org/Graphics/SVG/1.1/DTD/svg11.dtd" >
<svg xmlns="http://www.w3.org/2000/svg">
<metadata>Generated by IcoMoon</metadata>
<defs>
<font id="iconset" horiz-adv-x="1024">
<font-face units-per-em="1024" ascent="960" descent="-64" />
<missing-glyph horiz-adv-x="1024" />
<glyph unicode="&#x20;" horiz-adv-x="512" d="" />
<glyph unicode="&#xe900;" glyph-name="icon_07" horiz-adv-x="1657" d="M1461.742-64l-633.173 633.208-633.173-633.208-195.396 195.431 828.569 828.569 828.604-828.569-195.431-195.431z" />
<glyph unicode="&#xe901;" glyph-name="icon_14" horiz-adv-x="1141" d="M989.815 502.616c-17.997 0-32.569-14.574-32.569-32.569v-468.753h-891.955v893.413h891.955v-5.067c0-17.997 14.574-32.586 32.569-32.586s32.603 14.591 32.603 32.586v37.653c0 17.997-14.574 32.586-32.603 32.586h-957.095c-17.997 0-32.586-14.591-32.586-32.586v-958.569c0-17.997 14.591-32.603 32.586-32.603h957.095c17.997 0 32.603 14.591 32.603 32.603v501.305c0 17.997-14.574 32.586-32.603 32.586zM1131.617 826.161c-12.709 12.726-33.366 12.726-46.092 0l-566.276-566.326-234.715 234.732c-12.726 12.726-33.349 12.726-46.075 0-12.709-12.726-12.709-33.349 0-46.075l257.744-257.761c6.118-6.067 14.404-9.524 23.047-9.524s16.929 3.44 23.030 9.524l589.321 589.372c12.726 12.709 12.726 33.332 0.017 46.058z" />
<glyph unicode="&#xe902;" glyph-name="icon_15" horiz-adv-x="1146" d="M1058.906 803.92h-188.242v129.93c0 14.441-11.703 26.15-26.144 26.15h-546.721c-14.441 0-26.15-11.709-26.15-26.15v-129.93h-184.783c-47.897 0-86.867-38.969-86.867-86.873v-416.291c0-47.904 38.969-86.873 86.867-86.873h184.783v-251.733c0-14.441 11.709-26.15 26.15-26.15h546.715c14.441 0 26.144 11.709 26.144 26.15v251.733h188.242c47.897 0 86.867 38.969 86.867 86.873v416.291c0.006 47.904-38.969 86.873-86.86 86.873zM870.664 751.62h62.369v-73.184h-62.369v73.184zM323.949 907.7h494.415v-229.264h-494.415v229.264zM209.274 751.62h62.375v-73.184h-62.375v73.184zM818.37-11.7h-494.421v344.377h494.415v-344.377h0.006zM1093.478 300.756v0c0-19.065-15.514-34.573-34.573-34.573h-188.242v66.494h47.7c14.441 0 26.156 11.709 26.156 26.15s-11.715 26.15-26.156 26.15h-694.415c-14.441 0-26.15-11.709-26.15-26.15s11.709-26.15 26.15-26.15h47.7v-66.494h-184.783c-19.059 0-34.567 15.514-34.567 34.573v416.291c0 19.059 15.507 34.573 34.567 34.573h70.107v-99.328c0-14.441 11.709-26.15 26.15-26.15h776.059c14.441 0 26.144 11.709 26.144 26.15v99.328h73.573c19.065 0 34.573-15.507 34.573-34.573v-416.291z" />
<glyph unicode="&#xe903;" glyph-name="icon_16" horiz-adv-x="1117" d="M861.047 168.759c-64.137 0-116.345-52.223-116.345-116.36s52.208-116.36 116.345-116.36c64.152 0 116.36 52.223 116.36 116.36s-52.208 116.36-116.36 116.36zM861.047-17.418c-38.485 0-69.801 31.316-69.801 69.816 0 38.485 31.316 69.816 69.801 69.816 38.5 0 69.831-31.331 69.831-69.816 0-38.5-31.331-69.816-69.831-69.816zM395.636 168.759c-64.122 0-116.345-52.223-116.345-116.36s52.223-116.36 116.345-116.36c64.137 0 116.375 52.223 116.375 116.36s-52.238 116.36-116.375 116.36zM395.636-17.418c-38.485 0-69.816 31.316-69.816 69.816 0 38.485 31.331 69.816 69.816 69.816 38.5 0 69.816-31.331 69.816-69.816-0.015-38.5-31.331-69.816-69.816-69.816zM1000.693 261.831h-583.684c-55.25 0-103.24 39.329-114.071 93.555l-117.188 585.868c-2.199 10.875-11.734 18.708-22.835 18.708h-139.602c-12.864 0-23.272-10.423-23.272-23.272s10.408-23.272 23.272-23.272h120.532l113.423-567.205c15.168-75.856 82.379-130.911 159.726-130.911h583.669c12.864 0 23.287 10.423 23.287 23.272 0.015 12.849-10.423 23.257-23.257 23.257zM1111.36 812.332c-4.429 5.077-10.845 7.998-17.609 7.998h-884.276c-12.864 0-23.272-10.423-23.272-23.272s10.408-23.257 23.272-23.257h857.435l-37.612-317.674c-1.491-10.423-9.806-18.573-20.244-19.823l-732.519-34.975c-12.803-1.567-21.871-13.165-20.349-25.923 1.446-11.824 11.448-20.47 23.076-20.47 0.934 0 1.868 0.045 2.802 0.151l732.519 34.96c31.286 3.811 56.215 28.273 60.704 59.483l41.513 344.29c0.979 6.643-1.024 13.436-5.438 18.513z" />
<glyph unicode="&#xe904;" glyph-name="icon_19" d="M258.71-62.92c8.087-2.701 17.419 0.24 22.507 7.016l163.132 217.207 361.185-222.274c3.182-1.954 6.839-2.989 10.569-2.989 2.816 0 5.549 0.575 8.124 1.714 6.071 2.675 10.439 8.16 11.672 14.676l187.871 984.28c0.94 5.836-0.632 11.567-4.452 16.055-5.988 7.042-16.327 9.331-24.723 5.006l-983.444-493.77c-6.53-3.276-10.783-9.848-11.097-17.142-0.313-7.304 3.354-14.221 9.576-18.046l235.299-144.8v-327.811c0-8.688 5.538-16.374 13.777-19.121zM285.251 16.619v267.164l586.183 513.31-60.338-80.313c-7.304-9.728-217.677-289.839-365.193-486.257l-160.65-213.905zM801.768-11.306l-333.109 204.987 499.067 664.509-165.959-869.496zM61.576 444.199l810.15 406.755-607.149-531.68-203.001 124.925z" />
<glyph unicode="&#xe905;" glyph-name="icon_17" horiz-adv-x="515" d="M361.9-64h-241.55v481.43h-120.351v227.051l120.285 0.061-0.132 67.122c0 122.83 26.937 248.336 226.704 248.336h163.323v-227.084h-113.526c-34.517 0-34.517 0-34.517-35.894l-0.154-52.469h152.532l-24.056-227.051-128.437-0.055-0.121-481.447zM181.49-2.855h119.282l0.121 481.414 134.563 0.066 11.1 104.789h-145.888l0.342 113.696c0 49.010 7.387 96.945 95.65 96.945h52.386v104.806h-102.184c-123.788 0-165.565-47.225-165.565-187.142l0.253-128.294-120.406-0.061v-104.795h120.351v-481.425z" />
<glyph unicode="&#xe906;" glyph-name="icon_18" horiz-adv-x="768" d="M767.785 752.739c-0.070 6.155-2.448 12.182-6.967 16.707l-183.529 183.535c-0.006 0.006-0.012 0.006-0.023 0.012-4.333 4.333-10.326 7.008-16.927 7.008h-509.859c-27.839 0-50.48-22.641-50.48-50.474v-923.053c0-27.833 22.641-50.474 50.474-50.474h666.89c27.833 0 50.474 22.641 50.474 50.474v766.022c0.006 0.087-0.041 0.157-0.052 0.244zM584.314 878.138l101.667-101.667h-99.149c-1.386 0-2.523 1.131-2.523 2.523v99.143h0.006zM719.893-13.526c0-1.392-1.131-2.529-2.523-2.529h-666.89c-1.392 0-2.523 1.131-2.523 2.529v923.053c0 1.392 1.131 2.523 2.523 2.523h485.878v-133.055c0-27.833 22.641-50.48 50.48-50.48h133.055v-742.041zM596.102 631.97h-424.36c-13.238 0-23.975-10.737-23.975-23.975s10.737-23.975 23.975-23.975h424.348c13.243 0 23.981 10.737 23.981 23.975 0.006 13.243-10.732 23.975-23.969 23.975zM596.102 487.29h-424.36c-13.238 0-23.975-10.737-23.975-23.975 0-13.243 10.737-23.975 23.975-23.975h424.348c13.243 0 23.981 10.737 23.981 23.975 0.006 13.243-10.732 23.975-23.969 23.975zM596.102 342.609h-424.36c-13.238 0-23.975-10.732-23.975-23.975 0-13.238 10.737-23.975 23.975-23.975h424.348c13.243 0 23.981 10.737 23.981 23.975s-10.732 23.975-23.969 23.975zM383.922 197.934h-212.18c-13.238 0-23.975-10.737-23.975-23.975 0-13.243 10.737-23.981 23.975-23.981h212.174c13.243 0 23.981 10.737 23.981 23.981 0 13.238-10.732 23.975-23.975 23.975z" />
<glyph unicode="&#xe907;" glyph-name="icon_20" horiz-adv-x="1022" d="M809.761 445.383c-12.326 0-23.245 8.873-25.386 21.449-10.857 63.722-40.961 121.773-87.076 167.873-46.1 46.116-104.167 76.235-167.873 87.076-14.028 2.39-23.464 15.716-21.090 29.744 2.39 14.028 15.747 23.464 29.744 21.090 74.298-12.654 141.972-47.741 195.664-101.433 53.724-53.708 88.811-121.382 101.449-195.68 2.39-14.028-7.045-27.354-21.090-29.744-1.437-0.25-2.906-0.375-4.343-0.375zM996.334 453.882c-12.341 0-23.23 8.873-25.386 21.449-18.481 108.369-69.658 207.053-148.033 285.428-78.359 78.359-177.074 129.568-285.428 148.033-14.028 2.39-23.464 15.716-21.090 29.744 2.39 14.028 15.716 23.495 29.744 21.090 118.961-20.277 227.283-76.438 313.235-162.405 85.983-85.967 142.128-194.29 162.405-313.235 2.375-14.028-7.045-27.354-21.105-29.744-1.453-0.234-2.89-0.359-4.343-0.359zM708.797-64c-3.562 0-7.577 0-11.67 0.266-69.174 4.421-132.13 30.869-179.261 53.411-126.756 61.363-237.734 148.252-329.966 258.355-76.063 91.669-127.256 176.996-161.156 268.619-21.527 57.629-29.525 103.105-25.901 147.346 2.687 31.431 15.294 58.567 37.508 80.781l74.235 74.235c0.187 0.187 0.375 0.375 0.578 0.547 15.638 14.669 33.197 22.449 50.74 22.449 17.809 0 35.102-7.889 50.021-22.792 13.091-12.248 25.511-24.808 40.133-39.914 3.343-3.468 6.764-6.921 10.201-10.42 3.468-3.531 6.967-7.077 10.467-10.701l59.16-59.145c33.025-33.025 33.025-70.923 0-103.948l-6.155-6.186c-4.187-4.234-8.358-8.451-12.622-12.576-16.965-17.372-35.384-35.884-55.223-53.692-0.141-0.156-0.297-0.328-0.453-0.469-8.030-8.045-8.014-13.716-4.952-23.417l0.234-0.703c14.232-34.181 34.571-67.299 65.831-107.073 0.203-0.234 0.391-0.437 0.562-0.656 58.426-71.954 119.617-127.678 187.072-170.341 7.827-4.968 16.294-9.201 24.48-13.294 7.795-3.905 15.809-7.92 22.98-12.31 0.609-0.328 1.219-0.687 1.812-1.062 4.499-2.156 7.405-2.421 9.436-2.421 6.53 0 11.17 3.749 14.841 7.452l74.485 74.485c15.591 15.606 33.275 23.87 51.099 23.87 17.965 0 35.634-8.405 49.834-23.698 0.094-0.109 0.219-0.219 0.375-0.391l119.742-119.742c32.259-31.947 32.556-70.877 0.734-104.089-7.374-7.92-14.653-14.997-22.371-22.496l-4.905-4.796c-13.497-12.872-27.557-26.667-40.383-41.789-0.266-0.312-0.531-0.609-0.828-0.922-26.963-28.791-59.879-42.773-100.714-42.773zM148.736 782.223l-73.923-73.923c-13.747-13.747-20.918-29.182-22.574-48.6-2.968-36.212 4.077-74.813 22.839-125.069 31.853-86.061 80.281-166.608 152.423-253.559 87.451-104.386 192.681-186.807 312.719-244.92 42.835-20.48 99.871-44.554 160.203-48.412 2.749-0.187 5.624-0.187 8.373-0.172 26.292 0 45.632 8.030 62.628 26.026 14.247 16.715 29.291 31.509 43.445 45.007l4.796 4.655c6.905 6.733 13.45 13.091 19.699 19.746 0.625 0.75 1.297 1.453 2 2.125 11.716 12.451 11.529 19.277-0.484 31.197l-120.039 120.039c-0.437 0.406-0.875 0.859-1.281 1.297-4.124 4.546-8.951 7.483-12.279 7.483-3.609 0-9.233-3.359-14.638-8.78l-74.47-74.454c-14.935-14.966-32.212-22.574-51.318-22.574-11.279 0-22.089 2.671-33.087 8.17-1.062 0.531-2.234 1.203-3.374 1.906-0.437 0.25-0.875 0.5-1.297 0.765-5.343 3.312-12.201 6.749-19.481 10.389-8.951 4.468-19.043 9.514-29.057 15.872-72.048 45.569-137.16 104.729-199.023 180.808-0.344 0.391-0.672 0.781-0.953 1.125-34.899 44.304-57.676 81.578-73.892 120.835-0.234 0.562-0.437 1.125-0.64 1.703l-0.656 1.953c-9.139 28.932-3.577 53.88 16.372 74.563 1.328 1.578 2.562 2.656 3.312 3.281 17.903 16.044 34.29 32.369 53.38 51.912 0.187 0.187 0.359 0.359 0.547 0.547 4.062 3.921 8.045 7.936 12.044 11.998 2.109 2.125 4.218 4.265 6.358 6.405 13.044 13.044 13.044 17.965 0 31.009l-59.441 59.441c-3.687 3.796-7.092 7.264-10.467 10.701-3.531 3.577-7.045 7.155-10.482 10.717-14.091 14.544-25.995 26.588-38.274 38.071-0.172 0.172-0.344 0.328-0.516 0.516l-0.562 0.547c-5.093 5.077-10.029 7.889-13.747 7.889-4.030-0.016-9.545-2.999-15.184-8.233z" />
<glyph unicode="&#xe908;" glyph-name="icon_21" horiz-adv-x="999" d="M980.441 616.919c-0.040 0.027-0.081 0.067-0.135 0.094l-159.367 115.632v126.445c0 17.863-15.005 28.932-28.932 28.932h-182.704l-92.376 67.3c-0.067 0.040-0.135 0.094-0.216 0.148-4.314 2.912-9.976 4.53-15.962 4.53-5.945 0-11.648-1.591-16.030-4.489-0.108-0.067-0.202-0.135-0.297-0.202l-92.376-67.3h-182.717c-17.863 0-28.932-15.019-28.932-28.932v-124.989l-161.2-117.115c-12.026-7.496-19.198-17.432-19.198-26.626v-625.428c0-16.717 13.563-27.826 26.667-28.891 0.202-0.027 0.404-0.027 0.607-0.027h942.867c0.040 0 0.081 0 0.108 0 17.364 0.27 29.013 13.616 29.013 33.259v621.289c0.013 7.954-6.323 16.825-18.82 26.37zM76.077 590.333l104.537 75.983v-152.127l-104.537 76.144zM484.531 888.224l15.194 11.136 15.126-11.136h-30.32zM820.939 515.833v148.528l101.49-74.621-101.49-73.906zM943.501 537.269v-513.894l-335.518 268.636 335.518 245.258zM763.103 473.595l-263.351-191.885-263.364 191.885v356.563h526.715v-356.563zM438.451 257.7l43.829-32.073c6.094-4.611 11.594-6.741 17.283-6.741 5.662 0 11.203 2.13 17.378 6.687l43.91 32.154 332.107-265.737h-784.66l330.153 265.71zM391.521 292.010l-335.532-270.213v515.472l335.532-245.258zM355.876 684.017h290.004c4.125 0 7.455 3.33 7.455 7.455v40.876c0 4.125-3.33 7.455-7.455 7.455h-290.004c-4.112 0-7.455-3.33-7.455-7.455v-40.876c0-4.125 3.343-7.455 7.455-7.455zM355.876 552.962h290.004c4.125 0 7.455 3.33 7.455 7.455v40.863c0 4.125-3.33 7.469-7.455 7.469h-290.004c-4.112 0-7.455-3.343-7.455-7.469v-40.863c0-4.125 3.343-7.455 7.455-7.455zM355.876 421.893h290.004c4.125 0 7.455 3.316 7.455 7.455v40.863c0 4.112-3.33 7.455-7.455 7.455h-290.004c-4.112 0-7.455-3.343-7.455-7.455v-40.863c0-4.125 3.343-7.455 7.455-7.455z" />
<glyph unicode="&#xe909;" glyph-name="icon_22" horiz-adv-x="479" d="M319.865-64h-191.873v511.984h-127.992v176.472l127.992 0.049-0.213 103.965c0.016 143.934 39.052 231.531 208.617 231.531h141.167v-176.488h-88.236c-66.009 0-69.217-24.665-69.217-70.674l-0.262-88.318h158.68l-18.708-176.455-139.858-0.065-0.098-512z" />
<glyph unicode="&#xe90a;" glyph-name="icon_23" horiz-adv-x="1261" d="M1260.68 838.872c-46.409-20.56-96.201-34.52-148.494-40.752 53.4 31.999 94.295 82.713 113.666 143.021-50.12-29.641-105.426-51.145-164.319-62.788-47.209 50.304-114.343 81.647-188.774 81.647-142.816 0-258.634-115.778-258.634-258.532 0-20.232 2.275-40.014 6.703-58.914-214.91 10.782-405.467 113.728-533.011 270.175-22.303-38.107-34.971-82.549-34.971-129.963 0-89.724 45.692-168.89 114.999-215.218-42.351 1.414-82.241 13.078-117.13 32.47v-3.239c0-125.248 89.17-229.751 207.407-253.591-21.688-5.801-44.503-9.040-68.138-9.040-16.686 0-32.86 1.64-48.685 4.797 32.921-102.822 128.405-177.561 241.538-179.611-88.473-69.348-200.028-110.55-321.176-110.55-20.888 0-41.428 1.25-61.681 3.567 114.445-73.509 250.353-116.352 396.386-116.352 475.738 0 735.766 394.050 735.766 735.766l-0.84 33.475c50.817 36.262 94.787 81.79 129.389 133.632z" />
<glyph unicode="&#xe90b;" glyph-name="icon_24" horiz-adv-x="1334" d="M1024 504.911h-477.875v-159.286h291.551c-43.49-138.491-172.832-238.946-325.694-238.946-188.513 0-341.303 152.863-341.303 341.357 0 188.513 152.809 341.321 341.303 341.321 94.929 0 180.798-38.772 242.678-101.316l115.598 125.681c-92.328 90.48-218.762 146.278-358.276 146.278-282.76 0-511.982-229.222-511.982-511.982s229.222-512.018 512-512.018c247.702 0 464.544 175.918 512 409.607v159.304zM1334.3 505.162h-97.746v97.764h-83.787v-97.764h-97.764v-83.751h97.764v-97.764h83.787v97.764h97.746z" />
<glyph unicode="&#xe90c;" glyph-name="icon_01" horiz-adv-x="1022" d="M526.392 698.95c58.772-10.011 112.326-37.78 154.869-80.338 42.543-42.543 70.312-96.096 80.323-154.839 3.337-19.537 20.272-33.34 39.441-33.34 2.234 0 4.498 0.191 6.777 0.588 21.786 3.704 36.457 24.403 32.767 46.203-12.819 75.207-48.32 143.682-102.668 198.044-54.347 54.347-122.822 89.834-198.029 102.653-21.83 3.704-42.484-10.952-46.218-32.752-3.719-21.815 10.937-42.499 32.738-46.218zM1021.633 485.471c-20.213 118.544-76.177 226.474-161.822 312.133-85.659 85.659-193.604 141.609-312.133 161.822-21.771 3.704-42.499-10.937-46.203-32.752-3.734-21.801 10.937-42.484 32.738-46.203 102.094-17.405 195.104-65.637 268.958-139.507 73.855-73.855 122.116-166.864 139.507-268.958 3.337-19.522 20.272-33.326 39.426-33.326 2.234 0 4.513 0.191 6.777 0.588 21.801 3.704 36.457 24.403 32.752 46.203zM761.025 288.251c-0.088 0.103-0.191 0.191-0.265 0.279-16.626 17.832-37.618 27.622-59.228 27.622-21.36 0-42.175-9.526-60.213-27.563l-72.326-72.311c-1.852-1.882-3.116-2.822-3.763-2.822-0.515 0-1.323 0.309-2.073 0.632-0.397 0.25-0.809 0.47-1.205 0.706-7.453 4.557-15.45 8.541-23.227 12.451-7.968 3.969-15.48 7.718-22.448 12.143-64.079 40.529-122.278 93.553-177.948 162.131-0.191 0.235-0.397 0.47-0.617 0.72-29.18 37.177-48.188 68.004-61.404 99.625l-0.059 0.191c-1.058 3.41-1.103 4.513-1.161 4.395 0.059 0.132 0.559 1.147 2.352 2.94 0.074 0.088 0.162 0.162 0.25 0.25 19.36 17.42 37.28 35.399 53.774 52.289 4.16 4.028 8.232 8.144 12.319 12.29l5.91 5.954c38.236 38.236 38.236 83.895 0 122.146l-57.479 57.479c-3.352 3.455-6.703 6.865-10.026 10.246-3.308 3.352-6.586 6.689-9.805 10.011-14.23 14.7-26.343 26.946-39.118 38.912v0c-17.346 17.346-37.809 26.52-59.169 26.52-20.919 0-41.514-8.938-59.522-25.858-0.309-0.294-0.617-0.588-0.911-0.882l-72.047-72.047c-24.138-24.123-37.839-53.627-40.749-87.805-3.704-45.248 4.322-91.363 26.020-149.459 33.517-90.569 83.998-174.788 158.999-265.18 90.907-108.504 200.293-194.163 325.32-254.67 46.968-22.477 109.812-48.82 179.492-53.289 4.469-0.294 8.82-0.294 12.319-0.294 44.013 0 79.573 15.127 108.709 46.277 0.426 0.47 0.867 0.941 1.264 1.441 11.996 14.142 25.329 27.196 38.25 39.529l4.748 4.616c7.6 7.38 14.789 14.392 22.168 22.315 36.648 38.309 36.222 85.071-1.014 121.954l-116.118 116.118zM820.944 106.245c-0.838-0.823-1.632-1.646-2.381-2.528-5.777-6.115-11.922-12.098-18.405-18.42l-4.542-4.425c-13.951-13.289-28.798-27.872-42.984-44.498-13.715-14.392-28.151-20.287-49.614-20.287-2.323 0-4.822-0.015-7.159 0.132-56.008 3.587-109.636 26.255-149.929 45.542-114.575 55.45-215.067 134.17-298.521 233.78-68.915 83.057-115.119 159.867-145.446 241.792-17.405 46.6-23.962 82.072-21.271 114.854 1.308 15.333 6.733 27.005 17.567 37.854l71.532 71.532c1.749 1.588 3.102 2.573 4.057 3.146 0.75-0.544 1.764-1.367 2.955-2.573l0.662-0.662c0.265-0.265 0.529-0.515 0.794-0.764 11.687-10.937 23.094-22.462 36.619-36.428 3.366-3.484 6.792-6.968 10.261-10.467 3.263-3.308 6.542-6.645 9.82-10.040 0.147-0.147 0.294-0.294 0.441-0.441l57.684-57.684c1.852-1.852 3.102-3.337 3.925-4.44-0.823-1.103-2.073-2.587-3.925-4.44-2.102-2.102-4.175-4.204-6.233-6.277-3.807-3.852-7.571-7.659-11.437-11.393-0.294-0.279-0.559-0.544-0.838-0.838-18.302-18.743-33.987-34.355-51.025-49.643-1.529-1.308-2.94-2.705-4.234-4.175-16.406-17.097-32.341-45.674-19.36-86.806 0.059-0.191 0.118-0.382 0.191-0.573l0.632-1.896c0.309-0.897 0.632-1.793 0.985-2.661 16.273-39.441 39.044-76.707 73.811-120.852 0.368-0.47 0.794-0.97 1.235-1.499 61.036-75.031 125.365-133.435 196.618-178.507 10.364-6.571 20.522-11.643 29.518-16.156 6.747-3.366 13.127-6.556 17.714-9.408 0.515-0.323 1.044-0.632 1.588-0.941 1.397-0.867 2.822-1.661 4.146-2.323 12.804-6.409 25.49-9.496 38.824-9.496 15.612 0 38.765 4.572 60.433 26.299l72.297 72.267c1.25 1.264 2.367 2.205 3.278 2.896 0.338-0.309 0.735-0.706 1.117-1.147 0.5-0.529 1.058-1.117 1.602-1.632 0.029-0.059 0.074-0.088 0.103-0.118l116.574-116.574c2.029-2.014 3.219-3.513 3.896-4.528-0.617-0.985-1.705-2.514-3.572-4.557z" />
<glyph unicode="&#xe90d;" glyph-name="icon_02" horiz-adv-x="1327" d="M1327.123 836.921c-14.426 69.576-76.166 122.36-150.305 122.36l-1023.324 0.021c-84.848 0-153.494-69.133-153.494-153.494v-716.314c0-84.657 69.006-153.516 153.494-153.516h1023.324c73.695 0 135.836 52.467 150.305 122.318v778.624zM1150.712 856.966l-449.204-453.45c-20.024-20.214-52.657-20.214-72.702 0l-449.225 453.45h971.131zM102.337 110.659v678.886l337.848-341.017-337.848-337.869zM174.701 38.294l337.51 337.531 43.913-44.356c60.114-60.642 157.972-60.642 218.086 0l43.913 44.356 337.51-337.531h-980.932zM1227.976 110.659l-337.848 337.869 337.848 341.017v-678.886z" />
<glyph unicode="&#xe90e;" glyph-name="icon_03" horiz-adv-x="743" d="M371.701 960c-204.969 0-371.701-166.733-371.701-371.701 0-69.251 19.182-136.831 55.493-195.457l0.048-0.080 288.693-438.725c7.046-11.293 19.197-18.036 32.51-18.036h0.302c13.249 0.111 25.718 7.221 32.526 18.545l281.392 443.306c34.291 57.401 52.423 123.248 52.423 190.447 0 204.969-166.733 371.701-371.686 371.701zM256.915 860.45c36.407 15.444 75.024 23.285 114.787 23.285s78.348-7.841 114.739-23.285c35.134-14.919 66.722-36.264 93.856-63.429 27.15-27.166 48.479-58.785 63.35-93.951 15.444-36.407 23.269-75.008 23.269-114.771 0-53.075-14.41-105.292-41.719-150.987l-249.042-390.040-255.563 386.064c-28.995 46.872-44.327 100.456-44.327 154.963 0 39.747 7.825 78.364 23.269 114.771 14.919 35.166 36.264 66.769 63.445 93.951 27.182 27.166 58.785 48.51 93.935 63.429zM371.701 398.44c51.437 0 99.438 20.009 135.193 56.352 17.209 17.48 30.697 37.806 40.097 60.439 9.654 23.237 14.569 47.811 14.569 73.052 0 104.703-85.172 189.859-189.859 189.859-104.703 0-189.875-85.156-189.875-189.859 0-50.53 19.595-98.102 55.159-133.921 35.786-36.073 83.645-55.922 134.716-55.922zM371.701 701.893c30.156 0 58.61-11.865 80.082-33.385 21.504-21.535 33.321-50.021 33.321-80.209 0-30.076-11.643-58.467-32.812-79.939-21.376-21.71-50.006-33.655-80.575-33.655-62.634 0-113.61 50.96-113.61 113.594 0 30.172 11.865 58.658 33.417 80.193 21.504 21.535 49.99 33.401 80.177 33.401z" />
<glyph unicode="&#xe90f;" glyph-name="icon_04" horiz-adv-x="1032" d="M1012.662 40.451l-202.249 191.665c58.933 76.372 94.068 171.947 94.068 275.644 0 249.366-202.874 452.24-452.24 452.24s-452.24-202.874-452.24-452.24 202.874-452.24 452.24-452.24c102.117 0 196.406 34.070 272.19 91.367l204.951-194.274c11.706-11.099 26.664-16.575 41.622-16.575 16.024 0 32.030 6.321 43.938 18.872 22.989 24.238 21.96 62.534-2.279 85.542zM121.026 507.76c0 182.624 148.591 331.214 331.214 331.214s331.214-148.591 331.214-331.214-148.591-331.233-331.214-331.233c-182.624 0-331.214 148.591-331.214 331.233z" />
<glyph unicode="&#xe910;" glyph-name="icon_05" horiz-adv-x="633" d="M0 56.758l391.242 391.242-391.242 391.242 120.758 120.758 511.978-512-511.978-512-120.758 120.758z" />
<glyph unicode="&#xe911;" glyph-name="icon_06" horiz-adv-x="633" d="M632.728 839.239l-391.25-391.25 391.25-391.25-120.739-120.739-511.989 511.989 511.989 512.011 120.739-120.761z" />
<glyph unicode="&#xe912;" glyph-name="icon_08" horiz-adv-x="1657" d="M195.431 960l633.173-633.173 633.173 633.173 195.396-195.431-828.569-828.569-828.604 828.569 195.431 195.431z" />
<glyph unicode="&#xe913;" glyph-name="star_01" horiz-adv-x="1074" d="M562.193 943.050l136.707-323.184 349.587-29.903c24.225-2.116 34.181-32.597 15.606-48.444l-265.081-229.797 79.388-341.781c5.65-23.75-20.181-42.525-40.901-29.875l-300.606 181.319-300.578-181.319c-20.753-12.381-46.585 6.119-40.935 29.875l79.353 341.781-265.287 229.797c-18.334 16.144-8.344 46.328 15.847 48.444l349.553 29.903 136.747 323.184c9.39 22.601 41.141 22.601 50.6 0v0z" />
<glyph unicode="&#xe914;" glyph-name="star_02" horiz-adv-x="1074" d="M846.17-63.64c-6.394 0-12.747 1.813-18.386 5.256l-290.89 175.463-290.896-175.486c-5.633-3.363-11.935-5.124-18.271-5.124-10.854 0-21.405 5.147-28.211 13.765-6.674 8.452-9.047 19.398-6.514 30.046l76.786 330.727-256.749 222.397c-10.997 9.682-14.966 24.276-10.42 38.127 4.546 13.839 16.373 23.23 30.853 24.493l338.321 28.948 132.343 312.782c5.599 13.485 18.151 21.891 32.728 21.891 14.571 0 27.135-8.401 32.791-21.926l132.303-312.747 338.327-28.948c14.589-1.275 26.426-10.763 30.904-24.768 4.455-13.931 0.349-28.451-10.734-37.904l-256.492-222.351 76.831-330.778c2.528-10.631 0.143-21.628-6.565-30.126-6.794-8.595-17.282-13.736-28.062-13.736zM541.326 134.441l295.362-178.156c8.144-4.97 18.409-2.734 24.087 4.461 3.483 4.409 4.661 9.939 3.328 15.561l-78.015 335.857 2.739 8.429 260.449 225.776c5.856 5.004 7.926 12.335 5.582 19.667-1.824 5.719-7.005 12.112-16.047 12.902l-343.468 29.383-7.171 5.204-134.328 317.545c-2.991 7.16-9.333 11.42-16.979 11.42-7.629 0-13.948-4.249-16.91-11.369l-134.379-317.591-7.166-5.204-343.457-29.389c-7.629-0.669-13.628-5.439-16.035-12.759-2.408-7.331-0.389-14.754 5.404-19.856l260.598-225.736 2.739-8.424-77.964-335.817c-1.338-5.633-0.172-11.117 3.277-15.486 5.667-7.177 16.098-9.39 24.196-4.564l295.294 178.133h8.864z" />
<glyph unicode="&#xe915;" glyph-name="arrow_right" horiz-adv-x="633" d="M0 56.758l391.242 391.242-391.242 391.242 120.758 120.758 511.978-512-511.978-512-120.758 120.758z" />
<glyph unicode="&#xe916;" glyph-name="arrow_left" horiz-adv-x="633" d="M632.728 839.239l-391.25-391.25 391.25-391.25-120.739-120.739-511.989 511.989 511.989 512.011 120.739-120.761z" />
<glyph unicode="&#xe917;" glyph-name="icon_13" d="M934.035 840.006h-30.014v29.999c0 49.615-40.381 89.996-90.027 89.996-49.599 0-89.996-40.381-89.996-89.996v-29.999h-119.979v29.999c0 49.615-40.381 89.996-90.027 89.996-49.615 0-89.996-40.381-89.996-89.996v-29.999h-123.982v29.999c0 49.615-40.396 89.996-89.996 89.996-49.646 0-90.027-40.381-90.027-89.996v-29.999h-29.999c-49.615 0-89.996-40.381-89.996-89.996 0-4.361 0-712.5 0-724.015 0-49.615 40.381-89.996 89.996-89.996h844.040c49.615 0 89.996 40.381 89.996 89.996 0 5.525 0 714.269 0 724.015-0.016 49.615-40.381 89.996-89.996 89.996zM784.012 870.004c0 16.543 13.455 30.014 29.999 30.014 16.559 0 30.014-13.471 30.014-30.014v-119.994c0-16.543-13.44-29.999-30.014-29.999-16.528 0-29.999 13.455-29.999 29.999v119.994zM484.011 870.004c0 16.543 13.471 30.014 29.999 30.014 16.559 0 30.014-13.471 30.014-30.014v-119.994c0-16.543-13.44-29.999-30.014-29.999-16.512 0-29.999 13.455-29.999 29.999v119.994zM180.022 870.004c0 16.543 13.44 30.014 30.014 30.014 16.528 0 29.999-13.471 29.999-30.014v-119.994c0-16.543-13.455-29.999-29.999-29.999-16.559 0-30.014 13.455-30.014 29.999v119.994zM964.018 25.98c0-16.528-13.471-30.014-29.999-30.014h-844.024c-16.512 0-29.999 13.471-29.999 30.014v510.021h904.021v-510.021zM964.018 595.998h-904.021v154.012c0 16.528 13.471 29.999 29.999 29.999h30.014v-29.999c0-49.63 40.381-90.011 90.027-90.011 49.599 0 89.996 40.381 89.996 90.011v29.999h123.982v-29.999c0-49.63 40.381-90.011 89.996-90.011 49.646 0 90.027 40.381 90.027 90.011v29.999h119.979v-29.999c0-49.63 40.396-90.011 89.996-90.011 49.646 0 90.027 40.381 90.027 90.011v29.999h30.014c16.512 0 29.999-13.471 29.999-29.999v-154.012zM149.993 55.994h724.030c16.543 0 29.999 13.424 29.999 30.014v359.982c0 16.574-13.44 30.030-29.999 30.030h-724.030c-16.543 0-29.999-13.44-29.999-30.030v-359.982c0-16.59 13.455-30.014 29.999-30.014zM723.999 415.992h119.994v-119.994h-119.994v119.994zM723.999 236.001h119.994v-119.994h-119.994v119.994zM544.008 415.992h120.010v-119.994h-120.010v119.994zM544.008 236.001h120.010v-119.994h-120.010v119.994zM359.998 415.992h123.998v-119.994h-123.998v119.994zM359.998 236.001h123.998v-119.994h-123.998v119.994zM180.022 415.992h119.994v-119.994h-119.994v119.994zM180.022 236.001h119.994v-119.994h-119.994v119.994z" />
</font>
</defs>
</svg>
